<mxfile host="Electron" modified="2024-05-20T13:16:29.049Z" agent="Mozilla/5.0 (Windows NT 10.0; Win64; x64) AppleWebKit/537.36 (KHTML, like Gecko) draw.io/24.4.0 Chrome/120.0.6099.109 Electron/28.1.0 Safari/537.36" etag="UXCPW-FNM6bF-gY1Gnlc" version="24.4.0" type="device">
  <diagram name="Page-1" id="DKFh8jNZN6InBf2Aj7mT">
    <mxGraphModel dx="805" dy="1629" grid="0" gridSize="10" guides="1" tooltips="1" connect="1" arrows="1" fold="1" page="1" pageScale="1" pageWidth="850" pageHeight="1100" background="#ffffff" math="0" shadow="1">
      <root>
        <mxCell id="0" />
        <mxCell id="1" parent="0" />
        <mxCell id="gPfEMdKD7Z24la33nRv9-71" value="" style="shape=image;verticalLabelPosition=bottom;labelBackgroundColor=default;verticalAlign=top;aspect=fixed;imageAspect=0;image=data:image/png,iVBORw0KGgoAAAANSUhEUgAAAP0AAACUCAMAAABvEN9cAAAAclBMVEX////u7u4AAADt7e3s7Oz+/v7x8fH6+vr7+/v09PT39/c4ODjc3NzHx8eqqqoZGRnT09Pl5eW4uLiIiIhaWlrNzc2ysrJJSUk+Pj6jo6O+vr4iIiJ/f3+ampp4eHhqampiYmIwMDCRkZEpKSlSUlIRERH99mIcAAASc0lEQVR4nO2diXajuBKGhQFtBsxibIP3Je//iiOptGFkO+me7iQdOOeeO/1bCH1aqwqJIGYvTuzFAyIPiV5K9vz2V6L/pOd5hsUXBQ2mJCg2V8KRvXASaZGlRkuZTcmQExMjRv7tUpD/w050t2NqRW5ujz2R2jzjgajlxBYJkcgmJWMxiRxSim1KjxNF5hrQGzEe0FsRjcUoCtweYVdSZvP06eOASBObNCQO6G1KEhAH9DblRP9j6aMfTf+z236in+if0DvQV/S2UIP13jJ9Cr3ONH5Nj+3lJWXPReYxufvRe0XvdhISubudBlJiEhK9egoihUT/4om9vMaJjBZ5D00CYhq6ncYhEVuRh0SvyoKiLVLiN0NATFnodo/Tp7dD2Ouv3A0ijz4OiKnrmj59SHQDiwfEyBtY3gzi0dtO7NM/HazRgD4wWCf6iX6in+gn+on+T9Db4n8hemsExL4p+pesnfSXrB0neoZNyAR6YO0Mon0cLuKL3Ih+XNFqnpialKnTsBWpl5ISDvlSMs4z+CBRtkCZhqHOQJ7iqZCOUE+0ZeK/7eUEfTzn5XiNE3Jo/qiXM/TxAnPN5OFO9H+TPpqimp9HP/X8iX6if7HeJ++OasZR4PbX630SED9CbwKYycuoZnC9d2YZp/YKiQMTyoq+BWcvjgOiS8hIKKUTSUh0KbEnvr+gIZGi1F7OocE0JBIrkpCYeq6P1WgUEr3V57k48HKM5g0sZhN6CypzpWeB2z2kL+7hov/Lx4s/x8ONQuIP9+8n+ol+op/oJ/rPpv9bUU0vgMmeix+Ianq3fyCq6b3XFvYgVVsYqfeuXUpSFbaiEykodCDCzfT+dq1SPkgpZWkojx6kLF33qh4eRPzbsXuQJ3KZ6UikOgO/oNwSPdqrqbUouFdz6OUYMRrfHg+8nCiwLfP5Xs146OWYgg68HHORgDj0crT2LT1c8o/49x+I60WfE9f7zXj+U/qvH92wSe82E/2r9PLxHCdVVSWYRYxB8wO9mJrF8lBVQiA4iv+5iLaYHlmV75vjcnk6Npd9njEu+eWKmmQr8cPxeDodLkWZUJz8a23PaNYdNzN7zZddy0U7M5TVu+XW6m/rXc75v0MP62JUL2d31+bSYp6tRvpin7nHf2S9f3o2I3m93tv7Q+t98t71fng2Q8UOk8v1HlJc60txfAvopxzRp8dlWEh8/xEc8m7xVZ48dLt/LkdGBKMmBCn6eahOZLXkpiPh9wcwX0U1WUBMQwHMsPgqqulS3kU12UXDi8FeZVXZN7dhbcxPRV5VWVYf5iDcWsgi/uNRzVBYMgpYI78c1aS1HugFUbshpO+R7+eupbtKbedIUcqzBrRjpTP+9h5uAv37FFMxMUFFifuPBr5ghHmgK1BrXbDvHtPl0Jw77tYUQX8DyG3D7PqlQTP4ofSrZEgff6O2r1QfPybe2st1jczWvRfx0aBpp37qeJgeyz1CxKC+oPduh135v07PQyIxWT6kL9S81qeOE5NOL21tKLKF1aBYVmxMjzFLxOS43xd5lkneF/RMTKXuqiphYDP8UfoUq5sZvqdnSgf+B/REsRwSZ3dhWivj7u1QBeN6aS9/vuYjelHyrD45s6DOWGrn5wB9zLKBLfW2blZ5gknQOn9MD221yfgdPVXtuoByPqCvYGpLHT0v1zNTI8GoZnWC2fCOHpOsG1qGy31GDX6Inrfn2d21OHSlZ0qGV7w7+v3MtYZHz3cqxxWOHq94ahI75w6UVzu12p8qNKB3x2G4etxOdinvjAxi/emeZbasGRQKe4a4tXZ4Ox/dISabwp0Y8QwbFBId/bk1Xd/SN5oe37V9DAnFnIBUtzlWxFmAxRZ6UnpnFloLkvSqkBX1RZ4WIZRth8ampsk0DdLP3nZZOrJKH55A11P0uaXDlJxpen5v/upMWcpgXb8QbK1/3e9b5RcMw8PaT+Ct7BwL2TeMl5NEqAubxYvW3B7wcsL0ojUy8m4vJ4Ievu1TT5QujqYvVB6p84fMtLKqO1jY99TGdvBF3dNA/3ITaMzMvBCzUhU6Q96KioqF7blNUe8Pti7WmaZ3Y+ie/nqbbzabq2de78CWfJeHC/TXnvqi1DW9GnKB6EYznyH1/I7Ehh7IbswEseBR1eW8Z26qVt2jd/QJbU3RDxnmNOWsKky4YEcdPbxZuKff698iO2u+daoAL+lFpzNtXzt69Z7Ftv0dvbWwyqpHatbdE9P2DJq+17aLpq8FySYnpu2z0x09Rmtbag3K0kpPgvNW0/sfbRjSIz1XpbywPUbmfPfthRG97KuaflHTQdYsxrsBvV16Db3MRhZ7UVh6aPqD6T2KngNak5j+AMt0aekTVEPTX+FRqtlimoCvsF1peo5Yfbgtm94GQjR9jxIb22k1fsGxpq8u680hR5Qh2KkUA32a7ZfrY83RHX2aXY7LwwqbFa+we6EAHv6la3A5aHuuloCFsRxEN0lxZ5qj5LE/7h09Nm5Bw5Chl88RI2Sx2Ve68XhpPad1j+/o3WSgH7eRtiRGcWdMgoIpmrdS9ZJqb+aZLmo8+qTYDvVZnc/gd6KbTvctj14swYo+2QCEsY45650BA2NR0qspzc56Mc+AYpMjj16YQqtDn5l2ji4z7zolj+ixrkkZQiDt2t1yUCV5yyV95sUgD0dHX3omxxFKvoLSznYJU90UinGsXFU3nAE91FOpOz7GWbNw2d3AtI+4SnWuLD1dQYUf6JBeLK12HCbH2eCaVw/ojQ9d8Ij0I1tQWq4CPqBL+mw70sW4hxrUXRcB0B4ep0hOGVdnZPgJ6kWFACOcdaaKIYOcRypWqMp3jJBe78VaD1leTPOZpdW9OE4O96XaZMFxL5LC7w2mIRhJXwXMBEmfbMa6MOJhBCw6+R6Vc/WPbQ/PUsNgnlP5DjitVCfZa5so2Zkcdr3Kt1MWE4cBdTE2FOYphMauK/QgqklN/QjouV0biaHPEXYWHNX0O4xsN95urPmwyAmy5dqsLa8Y104XBoRHDx1aFFiUFVxa0dypimqqyM7bCsloH1GNeu4hLmg767rQloMYrFKv1IBSs4CKaiIE9Oc61eNdiepSh3+E/6MH87Fu834HTbqtDX2JvKgm1vQHnunyr7u+7butoUeVrslb15ZtsTb0tLR6X+Yrw19w3VVOmXgMgj6oZzZE1T8bGeTRM8Iy49ALyUpmt23KlGNVZWs1VYB1PvBwTdun2vYR61tpr1Y4unoZ36m5LtoDydHQS4PAOv2Gfkd1U95yedgK1WdDr0Mvp1aVExYgQW/0W66q3viPBTZ9opatoZphW8DyhdAeiKXvAzVxqLiZvUR+yz4WcyDOZRe5ts6fvvnRDVh+Fp2l58Vmba9TqUf9Qk+CDP65rkL0PNb0HOZsUVIsrfO0N/TQ2ucVBxNpZehBvxa69LrGi8jOo7KuVElvpaEvZUO8CTNFZKaed0mYmYGqQ5dIqyPiYNyqjKHj7yLs6PUiq50DQY/9Gf7aa8+phlypbq9zX47pY6LLutKr2jHRNkV81fRw07Fi4IPBsxY9h8Y+mTUWHzS9nunUKtebeyOgB+RdjDhLZL6LFXfzL9fxXFapR3QSFqyxFlZFHegF+hP4JiP6ugQQbeNRzlRtXFdBen1rlusqJTo0BdaOmPXgpkYYr55/v+groD+Y6IDxcqIYzPnZRswv4BPstUEjA1Xqp1LQZ2qc99R/0aYHI9DvBSx0SLDDDb1eaq41CrX9ttD01upDD+kTbXJIepjEGqrpNaWhv6DoffQ41vbjYkWxSiOm51jTI7hrmTynV93oIgZuqXKq6SCer9emm7KT5Ljv5nO7tll63ScJAtswRJ+aiX5PdM8/YN3z2Qnodc8XOvR8oFz0ycO2Z7rr73CmRs+y0liyMDA95OR12wt6tgHM4bucXIMeMzFUVAiPV7Ge2gW9XvCWkDjVa8SmHdBHcjOZtpnFBIuwttFaGRuMsX6RIOg3WifQ9lqv0dDcRtrCLURzEGidk7ZgdsYalclgRlsmxNKPwuSu7VUnetubOLmJ1hnD5JRHBPpj1pkV97qil5nuMarn5/DLktr1XqqE4MpGx+QSrEfPTvRKzIzH6Fa8JlGGdHQ09Dq9bnxjrUj6VK8LpRq1iw6ZmIwwAHinmqJJXdu7F556LyE465cU+r2wjCO9c1AfDMmsMXasc7HG53tnim8LpHkXXSbsZx33eNtb/z7vxVUXO5uJtEyss3vI4yjJtaks6M3g2JUxxqWuC2k7eXpUGtO6EA3FtCHUqCevK6JLL9/fE+jWs5rBnE/HL7t1qKKoYLoqRu/vUeHFpeabgRdyLZCOs4h+uWuM27aMHsb1Nr3M2PjNs+uhsW7CIqfI/GO+axrzpGufmtVCPqSxFSmjmnQwCx8R0VhIuS3w+mKbGbvPbXQwcT01Oq41QBxseMLu3WC8mwWuk6wTYf+jbBTtvvYPo5rrXhk4tHzk5YxdvNlZWHghr2i2onZd0Dl0dlyrJYrpQMBJFfFUjXesURW8uR5VjW5a5OhtqJOvRh7W276XPe4sgzvt3RaY7Yo8oN8eSg4LAFmN48QL6d/3Y0xJj/IAvqJHpeua13JIH3GYDmYwFedjegj3vanftwUd08uU5Z0Xe1uRXt5xVhHActD6axWCbQMu6aEH81LOtXzlhReWN0uf1t6Na5XxXDHlXjRkufToE/f0W3JHP4wjdGRE73vUB04C9HL5SPy3OYtLhmGShIKRyhsbDex8Kr3CqmuzaiPqTvYx2toaXcK4nLWySNSLkmUX+X9nMCYy6+WeKvhPvc6YcKmLQjh6TDtXy9vs/nUw9YbNnD7esZayslne1sLDOYoWFEYy77uuA5+LMRo167Wwgm6XTLs7adu5a9VWEOz2dqyJBSk/3tbz9a0XtkAhUvUY1mNW7m4bkVchdHl3rwvFy+a22c6XPU8rSK85V8Ue6no1oo+ZWUXltbfOtqavZl7V0Ke7FVNKUy7WQeUg+LvDmHwXl1IZKPVeU7pTpS7l3X49sewmhMqgN5xo1TFdoccVk3EBtaffy5PGotdRCJIbORWeG4Siz/535Swm9UZtZ140Aj33ZqyMvt6pKowE2AMTDfbni9qIsHxF7xlT4f16Ns/h/nz4RLMXz0+FYRkp3duvR+U7PKWbFxeiulOxuEMHXnrw3j5d5HXvCzfxW5GkclPMuUqTD3xz5f17NaP/c6+mzVTTH2ZNlSSr86jjD85m7N0Cc6iYOuFMSdQ7+FNGZP1/ztmMp3s1n53NUGaujQBS76W7fy6HoP5mQTdNruJShbOSzrsq1Wdo3Dtk72CN2xf5e6L3sU3vDbZ3Lsd7g+2Vfiyq2/2uK1+1IX+vprt4gtNqNzCj/E2Lb6fapCauwf2dK7Zx/D1bATG4Z9Z95DwenLSy84IT3cvowZem7s1TEBMT1zJD2utvsU8vT+zg+u6tg+0Le/tW5jPO4z3ZuaJBH+xYi3nlbP7zJX56GpHxbDXegDK7Nq33+O91GpEl+eW2XSy2y4t8D/T8LCbj1eowsMGuy0uJuf8Z229FH2POslZc2sZ6Si9mSp5kxQUOK5xPu31eYWn7fld6yc88s+vlOVx1FEftJKwSsexhL3j9Hemf7dEO0Pt7PQOg34/+k85gRyHxx9D/Xts/OJ3wcfpHPT90YmMQ1bTiq+/tePX07uMqwe/tBA+h/Jnv7XgBTH0ymwSO8Ay2ZWoRDoa7pPb8uv9ZJRpKabShaE6Lk6FI9GHz0Z6Ae5EafYik9TvRRTVHVqdnYA4+xz42MB94Oc53ceKXPJFme8EXP4E+fWFuop++q/lb9D+77Sf6if7P0Qe/o/336O9juo/pZXxdXdhZne7DltiZjVSeldNy6osmpWczYwbZ4oHNrBN6ecrtAdYqtHn6n9Ac3A66l6ctKPbtcGySYt+Qto/3jnh79fAZX5r67O/ne+rX8/F+toc70U/0E/1EP9FP9H+EPhBQ4i5M5NMHxPA73CgkhqJMNPjSPyh673ADZ6SDwbhhTNdmOvyupv3a+3ORhUT87pSD78IHxMF3NZ+Kg09oPhVJSKR/5uuCoTD6n/lrQfb+X/vrAWH6wMiaPNyJ/rvTT1HNT6T/et/V/Jv0P7vtvz79+9d7U6jkc/46oFnaf/GvBXk2kHmvO/jgeHBfJQ2kxPbF8P0n2EHk7xXJ6HPp6kkhcfi5dCOygEgC4t1ezUAE8htGNT/y/XxP/eE+3kQ/0U/0E/1EP9H/7/S2+F+I/vesHRS0dkLiq78W9BetHde2v+blhBrnFzzcwYk017WcGP6LMa6gL7wcGvRw/wNfo8x1DdifyAAAAABJRU5ErkJggg==;" vertex="1" parent="1">
          <mxGeometry x="150.26999999999998" y="-50" width="89.73" height="52.49" as="geometry" />
        </mxCell>
        <mxCell id="gPfEMdKD7Z24la33nRv9-1" value="" style="rounded=1;whiteSpace=wrap;html=1;hachureGap=4;fontFamily=Architects Daughter;fontSource=https%3A%2F%2Ffonts.googleapis.com%2Fcss%3Ffamily%3DArchitects%2BDaughter;" vertex="1" parent="1">
          <mxGeometry x="80" y="40" width="660" height="460" as="geometry" />
        </mxCell>
        <mxCell id="gPfEMdKD7Z24la33nRv9-3" value="" style="rounded=1;whiteSpace=wrap;html=1;hachureGap=4;fontFamily=Architects Daughter;fontSource=https%3A%2F%2Ffonts.googleapis.com%2Fcss%3Ffamily%3DArchitects%2BDaughter;" vertex="1" parent="1">
          <mxGeometry x="120" y="80" width="580" height="380" as="geometry" />
        </mxCell>
        <mxCell id="gPfEMdKD7Z24la33nRv9-4" value="&lt;h1&gt;&lt;b&gt;AWS&lt;/b&gt;&lt;/h1&gt;" style="text;align=center;html=1;verticalAlign=middle;whiteSpace=wrap;rounded=0;fontFamily=Architects Daughter;fontSource=https%3A%2F%2Ffonts.googleapis.com%2Fcss%3Ffamily%3DArchitects%2BDaughter;fontColor=#000000;" vertex="1" parent="1">
          <mxGeometry x="380" y="10" width="60" height="30" as="geometry" />
        </mxCell>
        <mxCell id="gPfEMdKD7Z24la33nRv9-5" value="&lt;h2&gt;REGION&lt;/h2&gt;" style="text;strokeColor=none;align=center;fillColor=none;html=1;verticalAlign=middle;whiteSpace=wrap;rounded=0;fontFamily=Architects Daughter;fontSource=https%3A%2F%2Ffonts.googleapis.com%2Fcss%3Ffamily%3DArchitects%2BDaughter;" vertex="1" parent="1">
          <mxGeometry x="180" y="50" width="60" height="30" as="geometry" />
        </mxCell>
        <mxCell id="gPfEMdKD7Z24la33nRv9-11" value="VPC" style="outlineConnect=0;gradientColor=none;html=1;whiteSpace=wrap;fontSize=12;fontStyle=0;shape=mxgraph.aws4.group;grIcon=mxgraph.aws4.group_vpc;strokeColor=#879196;fillColor=none;verticalAlign=top;align=left;spacingLeft=30;fontColor=#879196;dashed=0;hachureGap=4;fontFamily=Architects Daughter;fontSource=https%3A%2F%2Ffonts.googleapis.com%2Fcss%3Ffamily%3DArchitects%2BDaughter;movable=1;resizable=1;rotatable=1;deletable=1;editable=1;locked=0;connectable=1;" vertex="1" parent="1">
          <mxGeometry x="150" y="100" width="520" height="340" as="geometry" />
        </mxCell>
        <mxCell id="gPfEMdKD7Z24la33nRv9-30" value="" style="rounded=1;whiteSpace=wrap;html=1;hachureGap=4;fontFamily=Architects Daughter;fontSource=https%3A%2F%2Ffonts.googleapis.com%2Fcss%3Ffamily%3DArchitects%2BDaughter;" vertex="1" parent="1">
          <mxGeometry x="167" y="130" width="155" height="290" as="geometry" />
        </mxCell>
        <mxCell id="gPfEMdKD7Z24la33nRv9-12" value="" style="rounded=1;arcSize=10;dashed=0;fillColor=none;gradientColor=none;strokeWidth=2;hachureGap=4;fontFamily=Architects Daughter;fontSource=https%3A%2F%2Ffonts.googleapis.com%2Fcss%3Ffamily%3DArchitects%2BDaughter;" vertex="1" parent="1">
          <mxGeometry x="190" y="150" width="110" height="70" as="geometry" />
        </mxCell>
        <mxCell id="gPfEMdKD7Z24la33nRv9-13" value="" style="dashed=0;html=1;shape=mxgraph.aws3.permissions;fillColor=#D9A741;gradientColor=none;dashed=0;hachureGap=4;fontFamily=Architects Daughter;fontSource=https%3A%2F%2Ffonts.googleapis.com%2Fcss%3Ffamily%3DArchitects%2BDaughter;" vertex="1" parent="1">
          <mxGeometry x="200" y="140" width="20" height="20" as="geometry" />
        </mxCell>
        <mxCell id="gPfEMdKD7Z24la33nRv9-31" value="" style="rounded=1;whiteSpace=wrap;html=1;hachureGap=4;fontFamily=Architects Daughter;fontSource=https%3A%2F%2Ffonts.googleapis.com%2Fcss%3Ffamily%3DArchitects%2BDaughter;" vertex="1" parent="1">
          <mxGeometry x="332.5" y="125" width="155" height="290" as="geometry" />
        </mxCell>
        <mxCell id="gPfEMdKD7Z24la33nRv9-14" value="" style="rounded=1;arcSize=10;dashed=0;fillColor=none;gradientColor=none;strokeWidth=2;hachureGap=4;fontFamily=Architects Daughter;fontSource=https%3A%2F%2Ffonts.googleapis.com%2Fcss%3Ffamily%3DArchitects%2BDaughter;" vertex="1" parent="1">
          <mxGeometry x="350" y="150" width="110" height="70" as="geometry" />
        </mxCell>
        <mxCell id="gPfEMdKD7Z24la33nRv9-15" value="" style="dashed=0;html=1;shape=mxgraph.aws3.permissions;fillColor=#D9A741;gradientColor=none;dashed=0;hachureGap=4;fontFamily=Architects Daughter;fontSource=https%3A%2F%2Ffonts.googleapis.com%2Fcss%3Ffamily%3DArchitects%2BDaughter;" vertex="1" parent="1">
          <mxGeometry x="360" y="140" width="20" height="20" as="geometry" />
        </mxCell>
        <mxCell id="gPfEMdKD7Z24la33nRv9-32" value="" style="rounded=1;whiteSpace=wrap;html=1;hachureGap=4;fontFamily=Architects Daughter;fontSource=https%3A%2F%2Ffonts.googleapis.com%2Fcss%3Ffamily%3DArchitects%2BDaughter;" vertex="1" parent="1">
          <mxGeometry x="487.5" y="125" width="155" height="290" as="geometry" />
        </mxCell>
        <mxCell id="gPfEMdKD7Z24la33nRv9-16" value="" style="rounded=1;arcSize=10;dashed=0;fillColor=none;gradientColor=none;strokeWidth=2;hachureGap=4;fontFamily=Architects Daughter;fontSource=https%3A%2F%2Ffonts.googleapis.com%2Fcss%3Ffamily%3DArchitects%2BDaughter;" vertex="1" parent="1">
          <mxGeometry x="510" y="150" width="110" height="70" as="geometry" />
        </mxCell>
        <mxCell id="gPfEMdKD7Z24la33nRv9-17" value="" style="dashed=0;html=1;shape=mxgraph.aws3.permissions;fillColor=#D9A741;gradientColor=none;dashed=0;hachureGap=4;fontFamily=Architects Daughter;fontSource=https%3A%2F%2Ffonts.googleapis.com%2Fcss%3Ffamily%3DArchitects%2BDaughter;" vertex="1" parent="1">
          <mxGeometry x="520" y="140" width="20" height="20" as="geometry" />
        </mxCell>
        <mxCell id="gPfEMdKD7Z24la33nRv9-18" value="" style="rounded=1;arcSize=10;dashed=0;fillColor=none;gradientColor=none;strokeWidth=2;hachureGap=4;fontFamily=Architects Daughter;fontSource=https%3A%2F%2Ffonts.googleapis.com%2Fcss%3Ffamily%3DArchitects%2BDaughter;" vertex="1" parent="1">
          <mxGeometry x="510" y="250" width="110" height="70" as="geometry" />
        </mxCell>
        <mxCell id="gPfEMdKD7Z24la33nRv9-19" value="" style="dashed=0;html=1;shape=mxgraph.aws3.permissions;fillColor=#D9A741;gradientColor=none;dashed=0;hachureGap=4;fontFamily=Architects Daughter;fontSource=https%3A%2F%2Ffonts.googleapis.com%2Fcss%3Ffamily%3DArchitects%2BDaughter;" vertex="1" parent="1">
          <mxGeometry x="520" y="240" width="20" height="20" as="geometry" />
        </mxCell>
        <mxCell id="gPfEMdKD7Z24la33nRv9-20" value="" style="rounded=1;arcSize=10;dashed=0;fillColor=none;gradientColor=none;strokeWidth=2;hachureGap=4;fontFamily=Architects Daughter;fontSource=https%3A%2F%2Ffonts.googleapis.com%2Fcss%3Ffamily%3DArchitects%2BDaughter;" vertex="1" parent="1">
          <mxGeometry x="355" y="250" width="110" height="70" as="geometry" />
        </mxCell>
        <mxCell id="gPfEMdKD7Z24la33nRv9-21" value="" style="dashed=0;html=1;shape=mxgraph.aws3.permissions;fillColor=#D9A741;gradientColor=none;dashed=0;hachureGap=4;fontFamily=Architects Daughter;fontSource=https%3A%2F%2Ffonts.googleapis.com%2Fcss%3Ffamily%3DArchitects%2BDaughter;" vertex="1" parent="1">
          <mxGeometry x="365" y="240" width="20" height="20" as="geometry" />
        </mxCell>
        <mxCell id="gPfEMdKD7Z24la33nRv9-22" value="" style="rounded=1;arcSize=10;dashed=0;fillColor=none;gradientColor=none;strokeWidth=2;hachureGap=4;fontFamily=Architects Daughter;fontSource=https%3A%2F%2Ffonts.googleapis.com%2Fcss%3Ffamily%3DArchitects%2BDaughter;" vertex="1" parent="1">
          <mxGeometry x="190" y="250" width="110" height="70" as="geometry" />
        </mxCell>
        <mxCell id="gPfEMdKD7Z24la33nRv9-23" value="" style="dashed=0;html=1;shape=mxgraph.aws3.permissions;fillColor=#D9A741;gradientColor=none;dashed=0;hachureGap=4;fontFamily=Architects Daughter;fontSource=https%3A%2F%2Ffonts.googleapis.com%2Fcss%3Ffamily%3DArchitects%2BDaughter;" vertex="1" parent="1">
          <mxGeometry x="200" y="240" width="20" height="20" as="geometry" />
        </mxCell>
        <mxCell id="gPfEMdKD7Z24la33nRv9-24" value="" style="rounded=1;arcSize=10;dashed=0;fillColor=none;gradientColor=none;strokeWidth=2;hachureGap=4;fontFamily=Architects Daughter;fontSource=https%3A%2F%2Ffonts.googleapis.com%2Fcss%3Ffamily%3DArchitects%2BDaughter;" vertex="1" parent="1">
          <mxGeometry x="190" y="340" width="110" height="70" as="geometry" />
        </mxCell>
        <mxCell id="gPfEMdKD7Z24la33nRv9-25" value="" style="dashed=0;html=1;shape=mxgraph.aws3.permissions;fillColor=#D9A741;gradientColor=none;dashed=0;hachureGap=4;fontFamily=Architects Daughter;fontSource=https%3A%2F%2Ffonts.googleapis.com%2Fcss%3Ffamily%3DArchitects%2BDaughter;" vertex="1" parent="1">
          <mxGeometry x="200" y="330" width="20" height="20" as="geometry" />
        </mxCell>
        <mxCell id="gPfEMdKD7Z24la33nRv9-26" value="" style="rounded=1;arcSize=10;dashed=0;fillColor=none;gradientColor=none;strokeWidth=2;hachureGap=4;fontFamily=Architects Daughter;fontSource=https%3A%2F%2Ffonts.googleapis.com%2Fcss%3Ffamily%3DArchitects%2BDaughter;" vertex="1" parent="1">
          <mxGeometry x="350" y="340" width="110" height="70" as="geometry" />
        </mxCell>
        <mxCell id="gPfEMdKD7Z24la33nRv9-27" value="" style="dashed=0;html=1;shape=mxgraph.aws3.permissions;fillColor=#D9A741;gradientColor=none;dashed=0;hachureGap=4;fontFamily=Architects Daughter;fontSource=https%3A%2F%2Ffonts.googleapis.com%2Fcss%3Ffamily%3DArchitects%2BDaughter;" vertex="1" parent="1">
          <mxGeometry x="360" y="330" width="20" height="20" as="geometry" />
        </mxCell>
        <mxCell id="gPfEMdKD7Z24la33nRv9-28" value="" style="rounded=1;arcSize=10;dashed=0;fillColor=none;gradientColor=none;strokeWidth=2;hachureGap=4;fontFamily=Architects Daughter;fontSource=https%3A%2F%2Ffonts.googleapis.com%2Fcss%3Ffamily%3DArchitects%2BDaughter;" vertex="1" parent="1">
          <mxGeometry x="510" y="340" width="110" height="70" as="geometry" />
        </mxCell>
        <mxCell id="gPfEMdKD7Z24la33nRv9-29" value="" style="dashed=0;html=1;shape=mxgraph.aws3.permissions;fillColor=#D9A741;gradientColor=none;dashed=0;hachureGap=4;fontFamily=Architects Daughter;fontSource=https%3A%2F%2Ffonts.googleapis.com%2Fcss%3Ffamily%3DArchitects%2BDaughter;" vertex="1" parent="1">
          <mxGeometry x="520" y="330" width="20" height="20" as="geometry" />
        </mxCell>
        <mxCell id="gPfEMdKD7Z24la33nRv9-33" value="&lt;h3&gt;AZ-1&lt;/h3&gt;" style="text;strokeColor=none;align=center;fillColor=none;html=1;verticalAlign=middle;whiteSpace=wrap;rounded=0;fontFamily=Architects Daughter;fontSource=https%3A%2F%2Ffonts.googleapis.com%2Fcss%3Ffamily%3DArchitects%2BDaughter;" vertex="1" parent="1">
          <mxGeometry x="214.5" y="100" width="60" height="30" as="geometry" />
        </mxCell>
        <mxCell id="gPfEMdKD7Z24la33nRv9-34" value="&lt;h3&gt;AZ-2&lt;/h3&gt;" style="text;strokeColor=none;align=center;fillColor=none;html=1;verticalAlign=middle;whiteSpace=wrap;rounded=0;fontFamily=Architects Daughter;fontSource=https%3A%2F%2Ffonts.googleapis.com%2Fcss%3Ffamily%3DArchitects%2BDaughter;" vertex="1" parent="1">
          <mxGeometry x="380" y="100" width="60" height="30" as="geometry" />
        </mxCell>
        <mxCell id="gPfEMdKD7Z24la33nRv9-35" value="&lt;h3&gt;AZ-3&lt;/h3&gt;" style="text;strokeColor=none;align=center;fillColor=none;html=1;verticalAlign=middle;whiteSpace=wrap;rounded=0;fontFamily=Architects Daughter;fontSource=https%3A%2F%2Ffonts.googleapis.com%2Fcss%3Ffamily%3DArchitects%2BDaughter;" vertex="1" parent="1">
          <mxGeometry x="540" y="100" width="60" height="30" as="geometry" />
        </mxCell>
        <mxCell id="gPfEMdKD7Z24la33nRv9-36" value="&lt;h4&gt;WEB-TIER&lt;/h4&gt;" style="text;strokeColor=none;align=center;fillColor=none;html=1;verticalAlign=middle;whiteSpace=wrap;rounded=0;fontFamily=Architects Daughter;fontSource=https%3A%2F%2Ffonts.googleapis.com%2Fcss%3Ffamily%3DArchitects%2BDaughter;" vertex="1" parent="1">
          <mxGeometry x="225" y="126" width="60" height="30" as="geometry" />
        </mxCell>
        <mxCell id="gPfEMdKD7Z24la33nRv9-37" value="&lt;h4&gt;WEB-TIER&lt;/h4&gt;" style="text;strokeColor=none;align=center;fillColor=none;html=1;verticalAlign=middle;whiteSpace=wrap;rounded=0;fontFamily=Architects Daughter;fontSource=https%3A%2F%2Ffonts.googleapis.com%2Fcss%3Ffamily%3DArchitects%2BDaughter;" vertex="1" parent="1">
          <mxGeometry x="385" y="125" width="60" height="30" as="geometry" />
        </mxCell>
        <mxCell id="gPfEMdKD7Z24la33nRv9-38" value="&lt;h4&gt;WEB-TIER&lt;/h4&gt;" style="text;strokeColor=none;align=center;fillColor=none;html=1;verticalAlign=middle;whiteSpace=wrap;rounded=0;fontFamily=Architects Daughter;fontSource=https%3A%2F%2Ffonts.googleapis.com%2Fcss%3Ffamily%3DArchitects%2BDaughter;" vertex="1" parent="1">
          <mxGeometry x="550" y="125" width="60" height="30" as="geometry" />
        </mxCell>
        <mxCell id="gPfEMdKD7Z24la33nRv9-39" value="&lt;h4&gt;APP-TIER&lt;/h4&gt;" style="text;strokeColor=none;align=center;fillColor=none;html=1;verticalAlign=middle;whiteSpace=wrap;rounded=0;fontFamily=Architects Daughter;fontSource=https%3A%2F%2Ffonts.googleapis.com%2Fcss%3Ffamily%3DArchitects%2BDaughter;" vertex="1" parent="1">
          <mxGeometry x="225" y="220" width="60" height="30" as="geometry" />
        </mxCell>
        <mxCell id="gPfEMdKD7Z24la33nRv9-40" value="&lt;h4&gt;APP-TIER&lt;/h4&gt;" style="text;strokeColor=none;align=center;fillColor=none;html=1;verticalAlign=middle;whiteSpace=wrap;rounded=0;fontFamily=Architects Daughter;fontSource=https%3A%2F%2Ffonts.googleapis.com%2Fcss%3Ffamily%3DArchitects%2BDaughter;" vertex="1" parent="1">
          <mxGeometry x="385" y="220" width="60" height="30" as="geometry" />
        </mxCell>
        <mxCell id="gPfEMdKD7Z24la33nRv9-41" value="&lt;h4&gt;APP-TIER&lt;/h4&gt;" style="text;strokeColor=none;align=center;fillColor=none;html=1;verticalAlign=middle;whiteSpace=wrap;rounded=0;fontFamily=Architects Daughter;fontSource=https%3A%2F%2Ffonts.googleapis.com%2Fcss%3Ffamily%3DArchitects%2BDaughter;" vertex="1" parent="1">
          <mxGeometry x="550" y="220" width="60" height="30" as="geometry" />
        </mxCell>
        <mxCell id="gPfEMdKD7Z24la33nRv9-42" value="&lt;h4&gt;DB-TIER&lt;/h4&gt;" style="text;strokeColor=none;align=center;fillColor=none;html=1;verticalAlign=middle;whiteSpace=wrap;rounded=0;fontFamily=Architects Daughter;fontSource=https%3A%2F%2Ffonts.googleapis.com%2Fcss%3Ffamily%3DArchitects%2BDaughter;" vertex="1" parent="1">
          <mxGeometry x="225" y="320" width="60" height="30" as="geometry" />
        </mxCell>
        <mxCell id="gPfEMdKD7Z24la33nRv9-43" value="&lt;h4&gt;DB-TIER&lt;/h4&gt;" style="text;strokeColor=none;align=center;fillColor=none;html=1;verticalAlign=middle;whiteSpace=wrap;rounded=0;fontFamily=Architects Daughter;fontSource=https%3A%2F%2Ffonts.googleapis.com%2Fcss%3Ffamily%3DArchitects%2BDaughter;" vertex="1" parent="1">
          <mxGeometry x="385" y="320" width="60" height="30" as="geometry" />
        </mxCell>
        <mxCell id="gPfEMdKD7Z24la33nRv9-44" value="&lt;h4&gt;DB-TIER&lt;/h4&gt;" style="text;strokeColor=none;align=center;fillColor=none;html=1;verticalAlign=middle;whiteSpace=wrap;rounded=0;fontFamily=Architects Daughter;fontSource=https%3A%2F%2Ffonts.googleapis.com%2Fcss%3Ffamily%3DArchitects%2BDaughter;" vertex="1" parent="1">
          <mxGeometry x="540" y="320" width="60" height="30" as="geometry" />
        </mxCell>
        <mxCell id="gPfEMdKD7Z24la33nRv9-45" value="" style="outlineConnect=0;dashed=0;verticalLabelPosition=bottom;verticalAlign=top;align=center;html=1;shape=mxgraph.aws3.ec2;fillColor=#F58534;gradientColor=none;hachureGap=4;fontFamily=Architects Daughter;fontSource=https%3A%2F%2Ffonts.googleapis.com%2Fcss%3Ffamily%3DArchitects%2BDaughter;" vertex="1" parent="1">
          <mxGeometry x="220" y="160" width="40" height="40" as="geometry" />
        </mxCell>
        <mxCell id="gPfEMdKD7Z24la33nRv9-49" value="" style="outlineConnect=0;dashed=0;verticalLabelPosition=bottom;verticalAlign=top;align=center;html=1;shape=mxgraph.aws3.ec2;fillColor=#F58534;gradientColor=none;hachureGap=4;fontFamily=Architects Daughter;fontSource=https%3A%2F%2Ffonts.googleapis.com%2Fcss%3Ffamily%3DArchitects%2BDaughter;" vertex="1" parent="1">
          <mxGeometry x="390" y="265" width="40" height="40" as="geometry" />
        </mxCell>
        <mxCell id="gPfEMdKD7Z24la33nRv9-50" value="" style="outlineConnect=0;dashed=0;verticalLabelPosition=bottom;verticalAlign=top;align=center;html=1;shape=mxgraph.aws3.ec2;fillColor=#F58534;gradientColor=none;hachureGap=4;fontFamily=Architects Daughter;fontSource=https%3A%2F%2Ffonts.googleapis.com%2Fcss%3Ffamily%3DArchitects%2BDaughter;" vertex="1" parent="1">
          <mxGeometry x="224.5" y="265" width="40" height="40" as="geometry" />
        </mxCell>
        <mxCell id="gPfEMdKD7Z24la33nRv9-54" value="" style="points=[[0,0,0],[0.25,0,0],[0.5,0,0],[0.75,0,0],[1,0,0],[0,1,0],[0.25,1,0],[0.5,1,0],[0.75,1,0],[1,1,0],[0,0.25,0],[0,0.5,0],[0,0.75,0],[1,0.25,0],[1,0.5,0],[1,0.75,0]];outlineConnect=0;fontColor=#232F3E;fillColor=#8C4FFF;strokeColor=#ffffff;dashed=0;verticalLabelPosition=bottom;verticalAlign=top;align=center;html=1;fontSize=12;fontStyle=0;aspect=fixed;shape=mxgraph.aws4.resourceIcon;resIcon=mxgraph.aws4.route_53;hachureGap=4;fontFamily=Architects Daughter;fontSource=https%3A%2F%2Ffonts.googleapis.com%2Fcss%3Ffamily%3DArchitects%2BDaughter;" vertex="1" parent="1">
          <mxGeometry x="392" y="47" width="30" height="30" as="geometry" />
        </mxCell>
        <mxCell id="gPfEMdKD7Z24la33nRv9-56" value="" style="outlineConnect=0;fontColor=#232F3E;gradientColor=none;fillColor=#C925D1;strokeColor=none;dashed=0;verticalLabelPosition=bottom;verticalAlign=top;align=center;html=1;fontSize=12;fontStyle=0;aspect=fixed;pointerEvents=1;shape=mxgraph.aws4.rds_mysql_instance;hachureGap=4;fontFamily=Architects Daughter;fontSource=https%3A%2F%2Ffonts.googleapis.com%2Fcss%3Ffamily%3DArchitects%2BDaughter;" vertex="1" parent="1">
          <mxGeometry x="219.5" y="353" width="50" height="50" as="geometry" />
        </mxCell>
        <mxCell id="gPfEMdKD7Z24la33nRv9-57" value="" style="outlineConnect=0;fontColor=#232F3E;gradientColor=none;fillColor=#C925D1;strokeColor=none;dashed=0;verticalLabelPosition=bottom;verticalAlign=top;align=center;html=1;fontSize=12;fontStyle=0;aspect=fixed;pointerEvents=1;shape=mxgraph.aws4.rds_mysql_instance;hachureGap=4;fontFamily=Architects Daughter;fontSource=https%3A%2F%2Ffonts.googleapis.com%2Fcss%3Ffamily%3DArchitects%2BDaughter;" vertex="1" parent="1">
          <mxGeometry x="382" y="350" width="50" height="50" as="geometry" />
        </mxCell>
        <mxCell id="gPfEMdKD7Z24la33nRv9-58" value="" style="outlineConnect=0;dashed=0;verticalLabelPosition=bottom;verticalAlign=top;align=center;html=1;shape=mxgraph.aws3.application_load_balancer;fillColor=#F58534;gradientColor=none;hachureGap=4;fontFamily=Architects Daughter;fontSource=https%3A%2F%2Ffonts.googleapis.com%2Fcss%3Ffamily%3DArchitects%2BDaughter;" vertex="1" parent="1">
          <mxGeometry x="310" y="168" width="34.5" height="42" as="geometry" />
        </mxCell>
        <mxCell id="gPfEMdKD7Z24la33nRv9-59" value="" style="edgeStyle=none;orthogonalLoop=1;jettySize=auto;html=1;rounded=0;hachureGap=4;fontFamily=Architects Daughter;fontSource=https%3A%2F%2Ffonts.googleapis.com%2Fcss%3Ffamily%3DArchitects%2BDaughter;entryX=1.023;entryY=0.167;entryDx=0;entryDy=0;entryPerimeter=0;exitX=0;exitY=0.75;exitDx=0;exitDy=0;exitPerimeter=0;" edge="1" parent="1" source="gPfEMdKD7Z24la33nRv9-54" target="gPfEMdKD7Z24la33nRv9-30">
          <mxGeometry width="80" relative="1" as="geometry">
            <mxPoint x="407.5" y="77" as="sourcePoint" />
            <mxPoint x="487.5" y="77" as="targetPoint" />
            <Array as="points">
              <mxPoint x="330" y="70" />
            </Array>
          </mxGeometry>
        </mxCell>
        <mxCell id="gPfEMdKD7Z24la33nRv9-60" value="" style="edgeStyle=none;orthogonalLoop=1;jettySize=auto;html=1;rounded=0;hachureGap=4;fontFamily=Architects Daughter;fontSource=https%3A%2F%2Ffonts.googleapis.com%2Fcss%3Ffamily%3DArchitects%2BDaughter;" edge="1" parent="1" target="gPfEMdKD7Z24la33nRv9-50">
          <mxGeometry width="80" relative="1" as="geometry">
            <mxPoint x="320" y="210" as="sourcePoint" />
            <mxPoint x="412.5" y="200" as="targetPoint" />
            <Array as="points" />
          </mxGeometry>
        </mxCell>
        <mxCell id="gPfEMdKD7Z24la33nRv9-63" value="" style="edgeStyle=none;orthogonalLoop=1;jettySize=auto;html=1;rounded=0;hachureGap=4;fontFamily=Architects Daughter;fontSource=https%3A%2F%2Ffonts.googleapis.com%2Fcss%3Ffamily%3DArchitects%2BDaughter;exitX=0.5;exitY=1;exitDx=0;exitDy=0;exitPerimeter=0;entryX=0;entryY=0.21;entryDx=0;entryDy=0;entryPerimeter=0;" edge="1" parent="1" source="gPfEMdKD7Z24la33nRv9-58" target="gPfEMdKD7Z24la33nRv9-49">
          <mxGeometry width="80" relative="1" as="geometry">
            <mxPoint x="420" y="280" as="sourcePoint" />
            <mxPoint x="500" y="280" as="targetPoint" />
            <Array as="points" />
          </mxGeometry>
        </mxCell>
        <mxCell id="gPfEMdKD7Z24la33nRv9-64" value="" style="edgeStyle=none;orthogonalLoop=1;jettySize=auto;html=1;rounded=0;hachureGap=4;fontFamily=Architects Daughter;fontSource=https%3A%2F%2Ffonts.googleapis.com%2Fcss%3Ffamily%3DArchitects%2BDaughter;" edge="1" parent="1" target="gPfEMdKD7Z24la33nRv9-56">
          <mxGeometry width="80" relative="1" as="geometry">
            <mxPoint x="240" y="305" as="sourcePoint" />
            <mxPoint x="320" y="305" as="targetPoint" />
            <Array as="points" />
          </mxGeometry>
        </mxCell>
        <mxCell id="gPfEMdKD7Z24la33nRv9-65" value="" style="edgeStyle=none;orthogonalLoop=1;jettySize=auto;html=1;rounded=0;hachureGap=4;fontFamily=Architects Daughter;fontSource=https%3A%2F%2Ffonts.googleapis.com%2Fcss%3Ffamily%3DArchitects%2BDaughter;" edge="1" parent="1" target="gPfEMdKD7Z24la33nRv9-56">
          <mxGeometry width="80" relative="1" as="geometry">
            <mxPoint x="392" y="290" as="sourcePoint" />
            <mxPoint x="472" y="290" as="targetPoint" />
            <Array as="points" />
          </mxGeometry>
        </mxCell>
        <mxCell id="gPfEMdKD7Z24la33nRv9-66" value="" style="edgeStyle=none;orthogonalLoop=1;jettySize=auto;html=1;rounded=0;hachureGap=4;fontFamily=Architects Daughter;fontSource=https%3A%2F%2Ffonts.googleapis.com%2Fcss%3Ffamily%3DArchitects%2BDaughter;" edge="1" parent="1" target="gPfEMdKD7Z24la33nRv9-57">
          <mxGeometry width="80" relative="1" as="geometry">
            <mxPoint x="274.5" y="377.5" as="sourcePoint" />
            <mxPoint x="354.5" y="377.5" as="targetPoint" />
            <Array as="points" />
          </mxGeometry>
        </mxCell>
        <mxCell id="gPfEMdKD7Z24la33nRv9-67" value="&lt;b&gt;PHP+APACHE&lt;/b&gt;" style="text;strokeColor=none;align=center;fillColor=none;html=1;verticalAlign=middle;whiteSpace=wrap;rounded=0;fontFamily=Architects Daughter;fontSource=https%3A%2F%2Ffonts.googleapis.com%2Fcss%3Ffamily%3DArchitects%2BDaughter;" vertex="1" parent="1">
          <mxGeometry x="215" y="270" width="60" height="30" as="geometry" />
        </mxCell>
        <mxCell id="gPfEMdKD7Z24la33nRv9-68" value="&lt;b&gt;PHP+APACHE&lt;/b&gt;" style="text;strokeColor=none;align=center;fillColor=none;html=1;verticalAlign=middle;whiteSpace=wrap;rounded=0;fontFamily=Architects Daughter;fontSource=https%3A%2F%2Ffonts.googleapis.com%2Fcss%3Ffamily%3DArchitects%2BDaughter;" vertex="1" parent="1">
          <mxGeometry x="390" y="270" width="60" height="30" as="geometry" />
        </mxCell>
        <mxCell id="gPfEMdKD7Z24la33nRv9-69" value="&lt;span&gt;@SIVARANJAN&lt;/span&gt;" style="text;strokeColor=none;align=center;fillColor=none;html=1;verticalAlign=middle;whiteSpace=wrap;rounded=0;fontFamily=Comic Sans MS;fontColor=#000000;labelBackgroundColor=#FFFFFF;fontStyle=1;" vertex="1" parent="1">
          <mxGeometry x="574" y="44" width="60" height="30" as="geometry" />
        </mxCell>
        <mxCell id="gPfEMdKD7Z24la33nRv9-70" value="&lt;span&gt;3-TIER-APPLICATION&lt;/span&gt;" style="text;strokeColor=none;align=center;fillColor=none;html=1;verticalAlign=middle;whiteSpace=wrap;rounded=0;fontFamily=Verdana;fontStyle=1;textShadow=1;labelBackgroundColor=#FFFFFF;fontColor=#000000;" vertex="1" parent="1">
          <mxGeometry x="355" y="463" width="137" height="30" as="geometry" />
        </mxCell>
        <mxCell id="gPfEMdKD7Z24la33nRv9-72" value="" style="edgeStyle=none;orthogonalLoop=1;jettySize=auto;html=1;rounded=0;fontColor=#000000;labelBorderColor=#000000;sketch=1;curveFitting=1;jiggle=2;shadow=1;strokeColor=#050505;entryX=0.55;entryY=0.333;entryDx=0;entryDy=0;entryPerimeter=0;exitX=1;exitY=0.5;exitDx=0;exitDy=0;" edge="1" parent="1" source="gPfEMdKD7Z24la33nRv9-71" target="gPfEMdKD7Z24la33nRv9-4">
          <mxGeometry width="80" relative="1" as="geometry">
            <mxPoint x="413" y="-10" as="sourcePoint" />
            <mxPoint x="502" y="-10" as="targetPoint" />
            <Array as="points">
              <mxPoint x="416" y="-24" />
            </Array>
          </mxGeometry>
        </mxCell>
      </root>
    </mxGraphModel>
  </diagram>
</mxfile>
